<svg width="10" height="16" viewBox="0 0 10 16" fill="none" xmlns="http://www.w3.org/2000/svg">
<path fill-rule="evenodd" clip-rule="evenodd" d="M10 5C10 3.89 9.11 3 8 3C7.56065 2.99884 7.13323 3.14289 6.7842 3.40975C6.43518 3.67661 6.18412 4.05132 6.07006 4.47561C5.95601 4.8999 5.98535 5.34999 6.15352 5.75588C6.3217 6.16177 6.61928 6.50071 7 6.72V7.02C6.98 7.54 6.77 8 6.37 8.4C5.97 8.8 5.51 9.01 4.99 9.03C4.16 9.05 3.51 9.19 2.99 9.48V4.72C3.37072 4.50071 3.6683 4.16177 3.83648 3.75588C4.00465 3.34999 4.03399 2.8999 3.91994 2.47561C3.80588 2.05132 3.55482 1.67661 3.2058 1.40975C2.85677 1.14289 2.42935 0.998838 1.99 0.999999C0.88 0.999999 0 1.89 0 3C0.00210674 3.34903 0.0955177 3.69143 0.270949 3.99317C0.446381 4.29491 0.697724 4.54549 1 4.72V11.28C0.41 11.63 0 12.27 0 13C0 14.11 0.89 15 2 15C3.11 15 4 14.11 4 13C4 12.47 3.8 12 3.47 11.64C3.56 11.58 3.95 11.23 4.06 11.17C4.31 11.06 4.62 11 5 11C6.05 10.95 6.95 10.55 7.75 9.75C8.55 8.95 8.95 7.77 9 6.73H8.98C9.59 6.37 10 5.73 10 5ZM2 1.8C2.66 1.8 3.2 2.35 3.2 3C3.2 3.65 2.65 4.2 2 4.2C1.35 4.2 0.8 3.65 0.8 3C0.8 2.35 1.35 1.8 2 1.8ZM2 14.21C1.34 14.21 0.8 13.66 0.8 13.01C0.8 12.36 1.35 11.81 2 11.81C2.65 11.81 3.2 12.36 3.2 13.01C3.2 13.66 2.65 14.21 2 14.21ZM8 6.21C7.34 6.21 6.8 5.66 6.8 5.01C6.8 4.36 7.35 3.81 8 3.81C8.65 3.81 9.2 4.36 9.2 5.01C9.2 5.66 8.65 6.21 8 6.21V6.21Z" fill="#5C646D"/>
</svg>
