<svg xmlns="http://www.w3.org/2000/svg" width="27" height="27" viewBox="0 0 27 27">
  <path fill="#FFF" fill-rule="evenodd" d="M0 13.844c0 6.117 3.87 11.3 9.233 13.132.084.018.157.024.23.024.5 0 .692-.368.692-.687 0-.332-.012-1.2-.018-2.357a6.171 6.171 0 0 1-1.362.163c-2.598 0-3.188-2.019-3.188-2.019-.615-1.597-1.5-2.025-1.5-2.025-1.176-.825-.007-.85.084-.85 1.362.121 2.073 1.435 2.073 1.435.675 1.181 1.579 1.513 2.386 1.513.633 0 1.206-.205 1.543-.362.12-.892.47-1.5.856-1.85-2.995-.35-6.147-1.537-6.147-6.84 0-1.513.524-2.749 1.386-3.713-.139-.35-.603-1.76.132-3.664 0 0 .097-.03.302-.03.488 0 1.59.186 3.41 1.452a12.647 12.647 0 0 1 3.382-.464 12.68 12.68 0 0 1 3.381.464c1.82-1.266 2.923-1.453 3.411-1.453.205 0 .301.03.301.03.736 1.905.272 3.315.133 3.665.862.97 1.386 2.206 1.386 3.712 0 5.316-3.158 6.485-6.165 6.829.482.428.916 1.271.916 2.561 0 1.85-.018 3.345-.018 3.797 0 .325.187.693.687.693.072 0 .157-.006.241-.024C23.137 25.144 27 19.955 27 13.844 27 6.202 20.955 0 13.5 0S0 6.202 0 13.844z"/>
</svg>
