<svg xmlns="http://www.w3.org/2000/svg" width="16" height="16" viewBox="0 0 16 16">
    <path fill="#999" fill-rule="evenodd" d="M11.688 9.75A6.342 6.342 0 0 0 6.341 0 6.343 6.343 0 0 0 0 6.346a6.342 6.342 0 0 0 9.783 5.329l.288-.2L14.596 16 16 14.57l-4.52-4.524.207-.296zM9.892 2.8a4.977 4.977 0 0 1 1.466 3.542c0 1.337-.52 2.596-1.466 3.541A4.977 4.977 0 0 1 6.35 11.35a4.977 4.977 0 0 1-3.542-1.467 4.977 4.977 0 0 1-1.466-3.541c0-1.338.52-2.596 1.466-3.542A4.977 4.977 0 0 1 6.35 1.333c1.338 0 2.596.521 3.542 1.467z"/>
</svg>
